<mxfile host="65bd71144e">
    <diagram id="tODwv4WBtJszBRgvpGRd" name="Seite-1">
        <mxGraphModel dx="1163" dy="928" grid="1" gridSize="10" guides="1" tooltips="1" connect="1" arrows="1" fold="1" page="1" pageScale="1" pageWidth="4681" pageHeight="3300" math="0" shadow="0">
            <root>
                <mxCell id="0"/>
                <mxCell id="1" parent="0"/>
                <mxCell id="18" value="" style="rounded=0;whiteSpace=wrap;html=1;fillColor=none;dashed=1;" vertex="1" parent="1">
                    <mxGeometry x="180" y="160" width="770" height="280" as="geometry"/>
                </mxCell>
                <mxCell id="2" value="Desktop Client:&amp;nbsp;BASH" style="points=[];aspect=fixed;html=1;align=center;shadow=0;dashed=0;image;image=img/lib/allied_telesis/computer_and_terminals/Personal_Computer.svg;" vertex="1" parent="1">
                    <mxGeometry x="160" y="139.34" width="30" height="40.66" as="geometry"/>
                </mxCell>
                <mxCell id="13" style="edgeStyle=none;html=1;entryX=0.5;entryY=1;entryDx=0;entryDy=0;" edge="1" parent="1" source="5" target="11">
                    <mxGeometry relative="1" as="geometry">
                        <Array as="points">
                            <mxPoint x="720" y="380"/>
                        </Array>
                    </mxGeometry>
                </mxCell>
                <mxCell id="5" value="&lt;span style=&quot;color: rgb(68, 140, 39); font-family: Consolas, &amp;quot;Courier New&amp;quot;, monospace; font-size: 14px; background-color: rgb(245, 245, 245);&quot;&gt;confidential.json&lt;/span&gt;" style="aspect=fixed;html=1;points=[];align=center;image;fontSize=12;image=img/lib/azure2/general/File.svg;" vertex="1" parent="1">
                    <mxGeometry x="243.77" y="360" width="32.46" height="40" as="geometry"/>
                </mxCell>
                <mxCell id="8" value="" style="edgeStyle=none;html=1;" edge="1" parent="1" source="6" target="7">
                    <mxGeometry relative="1" as="geometry"/>
                </mxCell>
                <mxCell id="6" value="keygen.py" style="verticalLabelPosition=bottom;html=1;verticalAlign=top;align=center;strokeColor=none;fillColor=#00BEF2;shape=mxgraph.azure.code_file;pointerEvents=1;" vertex="1" parent="1">
                    <mxGeometry x="240" y="240" width="40" height="40" as="geometry"/>
                </mxCell>
                <mxCell id="10" value="" style="edgeStyle=none;html=1;" edge="1" parent="1" source="7" target="9">
                    <mxGeometry relative="1" as="geometry"/>
                </mxCell>
                <mxCell id="15" value="copy to&lt;br&gt;GITHUB secrets" style="edgeStyle=none;html=1;" edge="1" parent="1" source="7" target="14">
                    <mxGeometry relative="1" as="geometry">
                        <Array as="points">
                            <mxPoint x="360" y="80"/>
                        </Array>
                    </mxGeometry>
                </mxCell>
                <mxCell id="7" value="&lt;span style=&quot;color: rgb(230, 237, 243); font-family: ui-monospace, SFMono-Regular, &amp;quot;SF Mono&amp;quot;, Menlo, Consolas, &amp;quot;Liberation Mono&amp;quot;, monospace; font-size: 14px; text-align: start; background-color: rgb(13, 17, 23);&quot;&gt;PASSPHRASE&lt;/span&gt;" style="sketch=0;pointerEvents=1;shadow=0;dashed=0;html=1;strokeColor=none;fillColor=#505050;labelPosition=center;verticalLabelPosition=bottom;verticalAlign=top;outlineConnect=0;align=center;shape=mxgraph.office.concepts.file_key;" vertex="1" parent="1">
                    <mxGeometry x="340" y="240" width="40" height="40" as="geometry"/>
                </mxCell>
                <mxCell id="12" style="edgeStyle=none;html=1;entryX=0.5;entryY=0;entryDx=0;entryDy=0;" edge="1" parent="1" source="9" target="11">
                    <mxGeometry relative="1" as="geometry">
                        <Array as="points">
                            <mxPoint x="720" y="260"/>
                        </Array>
                    </mxGeometry>
                </mxCell>
                <mxCell id="9" value="&lt;span style=&quot;color: rgb(68, 140, 39); font-family: Consolas, &amp;quot;Courier New&amp;quot;, monospace; font-size: 14px; background-color: rgb(245, 245, 245);&quot;&gt;pass.txt&lt;/span&gt;" style="aspect=fixed;html=1;points=[];align=center;image;fontSize=12;image=img/lib/azure2/general/File.svg;" vertex="1" parent="1">
                    <mxGeometry x="440" y="240" width="32.46" height="40" as="geometry"/>
                </mxCell>
                <mxCell id="17" value="" style="edgeStyle=none;html=1;" edge="1" parent="1" source="11" target="16">
                    <mxGeometry relative="1" as="geometry"/>
                </mxCell>
                <mxCell id="11" value="&lt;div style=&quot;color: rgb(51, 51, 51); background-color: rgb(245, 245, 245); font-family: Consolas, &amp;quot;Courier New&amp;quot;, monospace; font-size: 14px; line-height: 19px;&quot;&gt;&lt;span style=&quot;color: #aa3731;font-weight: bold;&quot;&gt;gpg&lt;/span&gt; &lt;span style=&quot;color: #9c5d27;&quot;&gt;--symmetric&lt;/span&gt; &lt;span style=&quot;color: #9c5d27;&quot;&gt;--cipher-algo&lt;/span&gt; &lt;span style=&quot;color: #448c27;&quot;&gt;AES256&lt;/span&gt; &lt;span style=&quot;color: #9c5d27;&quot;&gt;--batch&lt;/span&gt; &lt;span style=&quot;color: #9c5d27;&quot;&gt;--passphrase-file&lt;/span&gt; &lt;span style=&quot;color: #448c27;&quot;&gt;&lt;u&gt;pass.txt&lt;/u&gt;&lt;/span&gt; &lt;span style=&quot;color: #448c27;&quot;&gt;&lt;u&gt;confidential.json&lt;/u&gt;&lt;/span&gt;&lt;/div&gt;" style="shape=process;whiteSpace=wrap;html=1;backgroundOutline=1;size=0.025;" vertex="1" parent="1">
                    <mxGeometry x="520" y="290" width="400" height="60" as="geometry"/>
                </mxCell>
                <mxCell id="14" value="&lt;span style=&quot;color: rgb(51, 51, 51); font-family: Consolas, &amp;quot;Courier New&amp;quot;, monospace; font-size: 14px; background-color: rgb(245, 245, 245);&quot;&gt;${{ secrets.PASSPHRASE }}&lt;/span&gt;" style="dashed=0;outlineConnect=0;html=1;align=center;labelPosition=center;verticalLabelPosition=bottom;verticalAlign=top;shape=mxgraph.weblogos.github" vertex="1" parent="1">
                    <mxGeometry x="1036.23" y="60" width="40" height="40" as="geometry"/>
                </mxCell>
                <mxCell id="60" value="upload" style="edgeStyle=none;html=1;startArrow=none;startFill=0;endArrow=classic;endFill=1;" edge="1" parent="1" source="16" target="59">
                    <mxGeometry relative="1" as="geometry"/>
                </mxCell>
                <mxCell id="16" value="&lt;span style=&quot;color: rgb(68, 140, 39); font-family: Consolas, &amp;quot;Courier New&amp;quot;, monospace; font-size: 14px; background-color: rgb(245, 245, 245);&quot;&gt;confidential.json.gpg&lt;/span&gt;" style="aspect=fixed;html=1;points=[];align=center;image;fontSize=12;image=img/lib/azure2/general/File.svg;" vertex="1" parent="1">
                    <mxGeometry x="1040" y="300" width="32.46" height="40" as="geometry"/>
                </mxCell>
                <mxCell id="19" value="Encryption" style="rounded=0;whiteSpace=wrap;html=1;dashed=1;fillColor=none;" vertex="1" parent="1">
                    <mxGeometry x="870" y="160" width="80" height="20" as="geometry"/>
                </mxCell>
                <mxCell id="20" value="" style="rounded=0;whiteSpace=wrap;html=1;fillColor=none;dashed=1;" vertex="1" parent="1">
                    <mxGeometry x="180" y="570" width="770" height="340" as="geometry"/>
                </mxCell>
                <mxCell id="57" value="" style="edgeStyle=none;html=1;startArrow=none;startFill=0;endArrow=classic;endFill=1;" edge="1" parent="1" source="22" target="33">
                    <mxGeometry relative="1" as="geometry"/>
                </mxCell>
                <mxCell id="22" value="&lt;span style=&quot;color: rgb(68, 140, 39); font-family: Consolas, &amp;quot;Courier New&amp;quot;, monospace; font-size: 14px; background-color: rgb(245, 245, 245);&quot;&gt;confidential.json&lt;/span&gt;" style="aspect=fixed;html=1;points=[];align=center;image;fontSize=12;image=img/lib/azure2/general/File.svg;" vertex="1" parent="1">
                    <mxGeometry x="603.77" y="800" width="32.46" height="40" as="geometry"/>
                </mxCell>
                <mxCell id="56" value="" style="edgeStyle=none;html=1;startArrow=none;startFill=0;endArrow=classic;endFill=1;" edge="1" parent="1" source="29" target="22">
                    <mxGeometry relative="1" as="geometry"/>
                </mxCell>
                <mxCell id="29" value="&lt;div style=&quot;color: rgb(51, 51, 51); background-color: rgb(245, 245, 245); font-family: Consolas, &amp;quot;Courier New&amp;quot;, monospace; font-size: 14px; line-height: 19px;&quot;&gt;&lt;div style=&quot;line-height: 19px;&quot;&gt;env: PASSPHRASE: ${{ secrets.PASSPHRASE }}&lt;/div&gt;&lt;div style=&quot;line-height: 19px;&quot;&gt;run: gpg --quiet --batch --yes --decrypt --passphrase=&quot;$&lt;u&gt;PASSPHRASE&lt;/u&gt;&quot; --output $HOME/&lt;u&gt;decrypted_file.json&lt;/u&gt; &lt;u&gt;confidential.json.gpg&lt;/u&gt;&lt;/div&gt;&lt;/div&gt;" style="shape=process;whiteSpace=wrap;html=1;backgroundOutline=1;size=0.025;" vertex="1" parent="1">
                    <mxGeometry x="320" y="690" width="600" height="60" as="geometry"/>
                </mxCell>
                <mxCell id="30" value="Decryption" style="rounded=0;whiteSpace=wrap;html=1;dashed=1;fillColor=none;" vertex="1" parent="1">
                    <mxGeometry x="870" y="570" width="80" height="20" as="geometry"/>
                </mxCell>
                <mxCell id="58" style="edgeStyle=none;html=1;entryX=0.5;entryY=0;entryDx=0;entryDy=0;startArrow=none;startFill=0;endArrow=classic;endFill=1;" edge="1" parent="1" source="31" target="29">
                    <mxGeometry relative="1" as="geometry">
                        <Array as="points">
                            <mxPoint x="620" y="610"/>
                        </Array>
                    </mxGeometry>
                </mxCell>
                <mxCell id="31" value="START&lt;br&gt;.github\workflows\decrypt.yml" style="dashed=0;outlineConnect=0;html=1;align=center;labelPosition=center;verticalLabelPosition=bottom;verticalAlign=top;shape=mxgraph.weblogos.github;fillColor=none;" vertex="1" parent="1">
                    <mxGeometry x="490" y="590" width="40" height="40" as="geometry"/>
                </mxCell>
                <mxCell id="55" value="" style="edgeStyle=none;html=1;startArrow=none;startFill=0;endArrow=classic;endFill=1;" edge="1" parent="1" source="33" target="52">
                    <mxGeometry relative="1" as="geometry"/>
                </mxCell>
                <mxCell id="33" value="print_secret.py" style="verticalLabelPosition=bottom;html=1;verticalAlign=top;align=center;strokeColor=none;fillColor=#00BEF2;shape=mxgraph.azure.code_file;pointerEvents=1;" vertex="1" parent="1">
                    <mxGeometry x="720" y="800" width="40" height="40" as="geometry"/>
                </mxCell>
                <mxCell id="52" value="TERMINATE&lt;br&gt;.github\workflows\decrypt.yml" style="dashed=0;outlineConnect=0;html=1;align=center;labelPosition=center;verticalLabelPosition=bottom;verticalAlign=top;shape=mxgraph.weblogos.github;fillColor=none;" vertex="1" parent="1">
                    <mxGeometry x="848" y="800" width="40" height="40" as="geometry"/>
                </mxCell>
                <mxCell id="54" value="Github Runner" style="sketch=0;aspect=fixed;html=1;points=[];align=center;image;fontSize=12;image=img/lib/mscae/VM_Linux.svg;dashed=1;fillColor=none;" vertex="1" parent="1">
                    <mxGeometry x="160" y="544" width="50" height="46" as="geometry"/>
                </mxCell>
                <mxCell id="59" value="Github-Repo" style="verticalLabelPosition=bottom;html=1;verticalAlign=top;align=center;strokeColor=none;fillColor=#00BEF2;shape=mxgraph.azure.git_repository;dashed=1;" vertex="1" parent="1">
                    <mxGeometry x="1031.23" y="160" width="50" height="50" as="geometry"/>
                </mxCell>
                <mxCell id="64" value="" style="edgeStyle=none;html=1;startArrow=none;startFill=0;endArrow=classic;endFill=1;" edge="1" parent="1" source="63" target="31">
                    <mxGeometry relative="1" as="geometry"/>
                </mxCell>
                <mxCell id="63" value="&lt;span style=&quot;color: rgb(51, 51, 51); font-family: Consolas, &amp;quot;Courier New&amp;quot;, monospace; font-size: 14px; background-color: rgb(245, 245, 245);&quot;&gt;Github Action-Secret&lt;br&gt;&lt;/span&gt;&lt;span style=&quot;color: rgb(51, 51, 51); font-family: Consolas, &amp;quot;Courier New&amp;quot;, monospace; font-size: 14px; background-color: rgb(245, 245, 245);&quot;&gt;PASSPHRASE&lt;/span&gt;&lt;span style=&quot;color: rgb(51, 51, 51); font-family: Consolas, &amp;quot;Courier New&amp;quot;, monospace; font-size: 14px; background-color: rgb(245, 245, 245);&quot;&gt;&lt;br&gt;&lt;/span&gt;" style="dashed=0;outlineConnect=0;html=1;align=center;labelPosition=center;verticalLabelPosition=bottom;verticalAlign=top;shape=mxgraph.weblogos.github" vertex="1" parent="1">
                    <mxGeometry x="255" y="590" width="40" height="40" as="geometry"/>
                </mxCell>
                <mxCell id="66" value="" style="edgeStyle=none;html=1;startArrow=none;startFill=0;endArrow=classic;endFill=1;entryX=0.25;entryY=1;entryDx=0;entryDy=0;" edge="1" parent="1" source="65" target="29">
                    <mxGeometry relative="1" as="geometry">
                        <Array as="points">
                            <mxPoint x="470" y="790"/>
                        </Array>
                    </mxGeometry>
                </mxCell>
                <mxCell id="65" value="&lt;span style=&quot;color: rgb(68, 140, 39); font-family: Consolas, &amp;quot;Courier New&amp;quot;, monospace; font-size: 14px; background-color: rgb(245, 245, 245);&quot;&gt;confidential.json.gpg&lt;/span&gt;" style="aspect=fixed;html=1;points=[];align=center;image;fontSize=12;image=img/lib/azure2/general/File.svg;" vertex="1" parent="1">
                    <mxGeometry x="258.77" y="770" width="32.46" height="40" as="geometry"/>
                </mxCell>
            </root>
        </mxGraphModel>
    </diagram>
</mxfile>